/* XPM */
static char *_71027a82167499cda9e40d4ea97a589[] = {
/* columns rows colors chars-per-pixel */
"40 40 164 2 ",
"   c None",
".  c #4788C7",
"X  c #4789C7",
"o  c #4989C7",
"O  c #498AC7",
"+  c #4889C8",
"@  c #4989C8",
"#  c #4A89C8",
"$  c #498AC8",
"%  c #4A8AC8",
"&  c #4B8BC8",
"*  c #4A8AC9",
"=  c #4A8BC9",
"-  c #4B8BC9",
";  c #4C8BC9",
":  c #4D8BC9",
">  c #4C8BCA",
",  c #4B8CC9",
"<  c #4C8CC8",
"1  c #4C8CC9",
"2  c #4D8CC9",
"3  c #4D8DC9",
"4  c #4F8CC9",
"5  c #4E8DC9",
"6  c #4F8DC9",
"7  c #4F8EC9",
"8  c #4D8CCA",
"9  c #4D8DCA",
"0  c #4F8CCA",
"q  c #4E8DCA",
"w  c #4F8DCA",
"e  c #4F8DCB",
"r  c #4D8ECA",
"t  c #4E8ECA",
"y  c #4F8ECA",
"u  c #4F8FCA",
"i  c #508DCB",
"p  c #508ECA",
"a  c #508ECB",
"s  c #508FCB",
"d  c #518FCB",
"f  c #528FCB",
"g  c #518FCC",
"h  c #5190CB",
"j  c #5290CB",
"k  c #5390CB",
"l  c #5090CD",
"z  c #5390CC",
"x  c #5391CC",
"c  c #5591CC",
"v  c #5592CC",
"b  c #5693CF",
"n  c #5893CE",
"m  c #5994CE",
"M  c #5895CE",
"N  c #5B95CE",
"B  c #5896CE",
"V  c #5A96CF",
"C  c #5C96CF",
"Z  c #5C97CF",
"A  c #5594D0",
"S  c #5795D0",
"D  c #5997D4",
"F  c #5E98D0",
"G  c #5E99D0",
"H  c #5F99D1",
"J  c #5C98D3",
"K  c #619AD0",
"L  c #619AD1",
"P  c #639BD1",
"I  c #659BD1",
"U  c #679FD3",
"Y  c #699ED2",
"T  c #6AA0D3",
"R  c #6AA0D4",
"E  c #6BA0D4",
"W  c #6CA1D4",
"Q  c #6DA2D4",
"!  c #6DA2D5",
"~  c #6FA3D5",
"^  c #6AA6DD",
"/  c #6BA6DD",
"(  c #6CA7DE",
")  c #71A4D7",
"_  c #71A5D7",
"`  c #79A9D9",
"'  c #78AAD8",
"]  c #79AAD9",
"[  c #79ABD9",
"{  c #7DADDA",
"}  c #7AB4E9",
"|  c #7AB5EA",
" . c #81B0DD",
".. c #83B1DD",
"X. c #86B3DD",
"o. c #87B4DE",
"O. c #8AB7E0",
"+. c #8BB7E0",
"@. c #8EB9E0",
"#. c #8FB9E1",
"$. c #80B9EE",
"%. c #90BAE1",
"&. c #94BCE2",
"*. c #95BCE3",
"=. c #95BDE3",
"-. c #97BEE4",
";. c #85BCF0",
":. c #87BEF1",
">. c #99C1E5",
",. c #9EC3E6",
"<. c #9FC4E7",
"1. c #8AC0F3",
"2. c #8DC3F6",
"3. c #91C6F8",
"4. c #94C8FA",
"5. c #96CAFC",
"6. c #97CBFC",
"7. c #98CCFD",
"8. c #A2C6E7",
"9. c #A2C6E9",
"0. c #A6C9EA",
"q. c #A8CBEA",
"w. c #AACCEB",
"e. c #ABCCEB",
"r. c #ACCEEC",
"t. c #ADCEEC",
"y. c #B0D0ED",
"u. c #B1D1EE",
"i. c #B7D5EF",
"p. c #BAD7F0",
"a. c #BBD7F1",
"s. c #BCD8F1",
"d. c #BED9F2",
"f. c #C0DAF2",
"g. c #C0DBF3",
"h. c #C2DCF3",
"j. c #C5DEF4",
"k. c #C6DFF5",
"l. c #C8E0F5",
"z. c #C9E0F6",
"x. c #CAE2F6",
"c. c #CCE3F7",
"v. c #CDE4F7",
"b. c #CEE4F8",
"n. c #CFE5F8",
"m. c #D1E6F9",
"M. c #D2E7F9",
"N. c #D3E7F9",
"B. c #D3E8FA",
"V. c #D4E8FA",
"C. c #D5E9FA",
"Z. c #D5EAFA",
"A. c #D6EAFB",
"S. c #D7EAFB",
"D. c #D8EBFB",
"F. c #D8ECFC",
"G. c #DAEDFC",
"H. c #DBEDFC",
"J. c #DCEDFD",
"K. c #DCEEFD",
"L. c #DDEFFD",
"P. c #DEEFFE",
"I. c #DEF0FE",
"U. c #DFF0FE",
/* pixels */
"                                                                                ",
"                                      u u $ . ;       k %                       ",
"                                  p M ,.k.G.m.N 4   s 9.@                       ",
"                                9 =.K.U.U.U.U.M.C N v.U.y                       ",
"                              p >.U.U.U.U.U.U.U.B.M.U.U.P                       ",
"                              L P.U.U.U.U.U.U.U.U.U.U.U.X.                      ",
"                            s 9.U.U.U.U.U.U.U.U.U.U.R R p.a                     ",
"                            u l.U.U.U.U.U.U.U.U.U.U.R E P.F                     ",
"                            = D.U.U.U.U.. m n.U.U.U.U.U.U.k.h &                 ",
"                  8 @ 9     - Z.U.U.U.U.8 % Y L.U.U.U.U.U.U.M. .z ;             ",
"                ; D 4.| -   p f.U.U.U.U.{ t u Q s.A.U.U.U.U.U.U.%.s             ",
"                - 3.7.7.2.A > +.U.U.U.U.C.v     a # @ 5 K -.x.q.q               ",
"              o l b :.7.7.6./ 7 N.U.U.U.U.v.N q           w 2 w                 ",
"              w ,.y.g $.7.7.7.^ ` U.U.U.U.U.S.[ q                               ",
"              B I.U.d.x } 7.7.5.S r.U.U.U.U.U.U.e.y                             ",
"            q &.U.U.U.z.V ( 5.7.:.B U.U.U.U.U.U.U.v.G 4                         ",
"            j d.U.U.U.U.C._ J ;.1.g U.U.U.U.U.U.U.U.D.W y                       ",
"            p V.U.U.U.U.U.I.q.H 1 <.U.U.U.U.U.U.U.U.U.D.m                       ",
"            % J.U.U.U.U.U.U.U.U.U.U.U.U.U.U.U.U.U.U.U.U.t.d                     ",
"            % F.U.U.U.U.U.U.U.U.U.U.U.U.U.U.U.U.U.U.U.U.Z.*                     ",
"            p x.U.U.U.U.U.U.U.U.a.M ] U.U.U.U.U.U.U.U.U.G.$                     ",
"            d w.U.U.U.U.U.U.U.k.y   O U.U.U.U.U.U.U.U.U.j.e                     ",
"              ] U.U.U.U.U.U.S.n     2 U.U.U.U.U.U.U.U.U.O.q                     ",
"              ; c.U.U.U.U.U...u     c U.U.U.U.U.U.U.U.z.:                       ",
"              5 ! I.U.U.U.g.3       T U.U.U.U.U.U.U.b.v                         ",
"                s o.I.U.I.L         o.U.U.U.U.U.U.f.h                           ",
"                  p ~ k.0.a       i 8.U.U.U.U.U.r.6                             ",
"                      q q         j p.U.U.U.U.u.q                               ",
"                                  9 x.U.U.U.N.y       f < X q 4                 ",
"                                  < N.U.U.U.%.1     y e.D.L.j.' e               ",
"                                  @ H.U.U.U.Z     w I y s #.K.I.T               ",
"                                  @ J.U.U.U.$     $ 0     p @.U.i.j             ",
"                                  < V.U.U.U.,     +         2 U.C.<             ",
"                                  d s.U.U.U.!               d U.S.*             ",
"                                  w =.U.U.U.h.5           r +.U.i.d             ",
"                                    z D.U.U.U.h.! , . . s +.H.P.U               ",
"                                    9 ) D.U.U.U.U.U.U.U.U.U.S.[ p               ",
"                                      q h *.s.V.J.U.H.m.i.+.y y                 ",
"                                          t d 2 @ . $ 1 k -                     ",
"                                                                                "
};
